<svg width="88" height="92" viewBox="0 0 88 92" fill="none" xmlns="http://www.w3.org/2000/svg">
<path d="M68.6034 34.3855V17.1927C68.6034 16.546 68.0105 15.9531 67.3638 15.9531C67.3099 15.9531 67.256 15.9531 67.2021 15.9531C44.4581 16.1148 35.6192 0.646748 35.6192 0.646748C35.2419 0 34.4874 -0.161687 33.8945 0.161687C33.679 0.269479 33.5173 0.485061 33.4095 0.646748C32.9244 1.50908 23.9238 16.1687 1.66489 15.9531C1.01815 15.9531 0.425293 16.4921 0.425293 17.1927V54.8658V54.9736C0.425293 56.5905 1.01815 75.3462 33.9484 91.8383C34.3257 92.0539 34.8108 92 35.188 91.7844C38.9068 89.9519 42.1406 88.0656 45.0509 86.1792C46.8295 85.0474 48.5003 83.8617 50.0094 82.7299C31.9004 72.9748 46.3983 29.2115 68.6034 34.3855Z" fill="#F8D12C"/>
<path d="M35.5652 13.5817C35.5652 13.5817 28.7205 25.5465 11.4738 25.9777V52.5483V52.7099C11.4738 53.8956 12.0667 66.3994 35.0802 77.9331C35.673 78.2565 35.9425 79.011 35.6191 79.6039C35.2958 80.2506 34.5412 80.4662 33.9484 80.1967C9.64138 68.0163 8.99463 54.1112 8.99463 52.656V52.5483V24.7381C8.99463 24.0374 9.53359 23.4446 10.2342 23.4446V23.4985C26.9419 23.6063 33.4094 12.3421 33.4094 12.2882C33.7867 11.6953 34.5412 11.4797 35.1341 11.857C35.7269 12.1804 35.9425 12.9888 35.5652 13.5817Z" fill="#D5B73F"/>
<path d="M61.5432 33.4153C68.4957 33.4153 75.071 36.164 79.9216 41.0146C84.8261 45.9191 87.5748 52.4944 87.5748 59.4469C87.5748 66.3456 84.8261 72.9209 79.9216 77.8254C75.071 82.7299 68.4957 85.4247 61.5432 85.4247C54.6445 85.4247 48.0692 82.7299 43.1647 77.8254C38.2602 72.9209 35.5654 66.3456 35.5654 59.4469C35.5654 52.4944 38.2602 45.9191 43.1647 41.0146C48.0692 36.164 54.6445 33.4153 61.5432 33.4153Z" fill="#FEEA86"/>
<path d="M69.7351 53.0334V48.9912C69.7351 45.3802 66.7709 42.4159 63.1599 42.4159H59.9261C56.3151 42.4159 53.3508 45.3802 53.3508 48.9912V53.0334C51.0333 53.1411 49.147 55.1353 49.147 57.5067V69.5793C49.147 72.0047 51.1411 73.9988 53.5664 73.9988H69.5195C71.9448 73.9988 73.9929 72.0047 73.9929 69.5793V57.5067C73.9929 55.1353 72.1065 53.1411 69.7351 53.0334ZM55.8839 53.0334V48.9912C55.8839 46.7814 57.7164 44.949 59.9261 44.949H63.1599C65.4235 44.949 67.202 46.7814 67.202 48.9912V53.0334H55.8839Z" fill="#FFC107"/>
<path d="M56.7466 63.543C56.7466 60.8482 58.9024 58.6924 61.5433 58.6924C64.1842 58.6924 66.34 60.8482 66.34 63.543C66.34 66.1839 64.1842 68.3397 61.5433 68.3397C58.9024 68.3397 56.7466 66.1839 56.7466 63.543Z" fill="#D5A20C"/>
</svg>
