<svg width="48" height="48" viewBox="0 0 48 48" fill="none" xmlns="http://www.w3.org/2000/svg">
<path opacity="0.2" d="M24 48C37.2548 48 48 37.2548 48 24C48 10.7452 37.2548 0 24 0C10.7452 0 0 10.7452 0 24C0 37.2548 10.7452 48 24 48Z" fill="#D96100"/>
<path fill-rule="evenodd" clip-rule="evenodd" d="M31.4321 19.3975C31.222 17.2171 29.3398 16.4861 26.9634 16.2779L26.9633 13.2534L25.1218 13.2537L25.1219 16.1985C24.6384 16.1985 24.1437 16.208 23.6522 16.2178L23.6525 13.2535L21.8125 13.2535L21.8118 16.2772C21.4132 16.2853 21.0218 16.2927 20.6401 16.2929L20.6399 16.2836L18.1007 16.2827L18.1012 18.2489C18.1012 18.2489 19.4607 18.223 19.4381 18.2481C20.1838 18.2483 20.427 18.6811 20.4971 19.0548L20.4972 22.5003C20.5487 22.5006 20.6158 22.5028 20.6918 22.5132L20.4978 22.5133L20.4969 27.3403C20.4642 27.575 20.3262 27.9492 19.8052 27.9501C19.8288 27.971 18.467 27.9497 18.467 27.9497L18.1013 30.1489L20.4976 30.1486C20.7682 30.149 21.0362 30.1519 21.3012 30.1548L21.3015 30.1548C21.473 30.1566 21.6433 30.1585 21.8123 30.1596L21.8132 33.219L23.6522 33.2193L23.6526 30.1926C24.1571 30.2032 24.6457 30.2072 25.1228 30.2067L25.122 33.2194L26.963 33.2192L26.9636 30.1657C30.0587 29.9881 32.2254 29.2082 32.4936 26.3025C32.7108 23.9621 31.6103 22.9177 29.8533 22.4953C30.9204 21.9508 31.5877 20.9931 31.4317 19.3976L31.4321 19.3975ZM28.856 25.9384C28.8565 28.0366 25.5598 27.9903 24.0528 27.9692L24.0527 27.9692C23.9178 27.9673 23.7972 27.9656 23.6946 27.9656L23.6951 23.9127C23.8205 23.9127 23.9729 23.9091 24.1454 23.9051C25.69 23.8686 28.8553 23.7939 28.8565 25.9382L28.856 25.9384ZM23.998 22.0612C25.2562 22.0818 27.9987 22.1266 27.9993 20.2203C27.9995 18.2702 25.361 18.3403 24.0724 18.3745C23.9275 18.3784 23.7997 18.3818 23.6947 18.3818L23.6945 22.0576C23.7813 22.0576 23.8835 22.0593 23.998 22.0612Z" fill="#D96100"/>
</svg>
